#!OML:ASF F:\VICON\USERDATA\INSTALL\rory3\rory3.ASF
:FULLY-SPECIFIED
:DEGREES
2081
root 8.00427 17.7359 5.10927 -180.595 -30.9016 -183.904
lowerback 11.2904 2.80736 -1.64883
upperback 1.27342 3.40018 -0.443399
thorax -5.06093 1.66146 -0.0589868
lowerneck -17.7753 1.82731 -9.96949
upperneck 39.2397 2.22582 3.9163
head 17.1274 -0.961164 3.69762
rclavicle -1.00809e-013 1.31198e-014
rhumerus -38.2388 -16.1647 -66.7089
rradius 30.0497
rwrist 8.74239
rhand -17.5861 10.7847
rfingers 7.12502
rthumb 8.66982 -19.0173
lclavicle -1.00809e-013 1.31198e-014
lhumerus -26.0378 4.8691 85.0801
lradius 31.3787
lwrist -6.11828
lhand -19.1259 22.0393
lfingers 7.12502
lthumb 7.18363 51.8974
rfemur -4.69153 6.75098 -1.70237
rtibia 27.1645
rfoot -4.92252 -11.8605
rtoes 2.84465
lfemur 0.231565 -3.49452 -17.501
ltibia 19.7721
lfoot -13.6764 -6.08388
ltoes -16.3889
2082
root 7.93711 17.7507 5.17794 -180.486 -30.8222 -184.024
lowerback 11.1974 2.82709 -1.9537
upperback 1.27915 3.39317 -0.410812
thorax -5.0231 1.66447 0.151155
lowerneck -17.8625 1.81641 -10.1207
upperneck 39.2527 2.24069 4.01803
head 17.1504 -0.963312 3.77629
rclavicle 1.21433e-013 -8.74653e-015
rhumerus -38.2555 -16.0867 -66.8899
rradius 30.1555
rwrist 8.75582
rhand -17.2943 10.9878
rfingers 7.12502
rthumb 8.95132 -18.8024
lclavicle 1.21433e-013 -8.74653e-015
lhumerus -26.0139 4.44917 85.1505
lradius 31.5265
lwrist -5.43094
lhand -19.7289 22.2177
lfingers 7.12502
lthumb 6.60153 52.0948
rfemur -5.22673 6.17117 -1.64601
rtibia 28.2037
rfoot -5.95205 -12.2041
rtoes 3.30092
lfemur 0.13006 -3.5748 -17.9781
ltibia 19.7035
lfoot -13.508 -6.0898
ltoes -15.4296
2083
root 7.87922 17.7672 5.24558 -180.466 -30.8693 -183.893
lowerback 11.0886 2.75337 -2.13338
upperback 1.28933 3.28469 -0.288999
thorax -4.96725 1.61632 0.400858
lowerneck -17.9953 1.85383 -10.2215
upperneck 39.2364 2.38037 3.98773
head 17.1606 -0.922507 3.80865
rclavicle -1.18277e-014 -4.37326e-015
rhumerus -38.199 -15.8571 -67.1713
rradius 30.2286
rwrist 8.75412
rhand -16.93 10.8457
rfingers 7.12502
rthumb 9.30284 -18.929
lclavicle -1.18277e-014 -4.37326e-015
lhumerus -26.036 3.83937 85.236
lradius 31.8265
lwrist -4.38552
lhand -20.1887 22.3588
lfingers 7.12502
lthumb 6.15763 52.2494
rfemur -5.83174 5.58367 -1.26987
rtibia 29.3925
rfoot -6.95109 -12.2695
rtoes 4.44991
lfemur -0.0443418 -3.69899 -18.1553
ltibia 19.6371
lfoot -13.2765 -6.31293
ltoes -14.0927
2084
root 7.82879 17.7787 5.31443 -180.368 -31.0872 -183.976
lowerback 11.0795 2.66125 -2.46924
upperback 1.3089 3.12461 -0.224746
thorax -4.95936 1.54397 0.681552
lowerneck -18.0836 1.86045 -10.3375
upperneck 39.1313 2.48499 3.95898
head 17.1146 -0.888063 3.83478
rclavicle 1.52319e-014 2.38542e-015
rhumerus -38.1892 -15.672 -67.4568
rradius 30.2992
rwrist 8.8813
rhand -16.697 10.66
rfingers 7.12502
rthumb 9.52769 -19.1046
lclavicle 1.52319e-014 2.38542e-015
lhumerus -25.7163 4.30011 85.0517
lradius 31.54
lwrist -4.80312
lhand -20.0953 22.2509
lfingers 7.12502
lthumb 6.24786 52.1388
rfemur -6.3886 4.95485 -1.00585
rtibia 30.6996
rfoot -7.71728 -12.1362
rtoes 4.39868
lfemur -0.234026 -3.74932 -18.4849
ltibia 19.5678
lfoot -12.9993 -6.66293
ltoes -13.4049
2085
root 7.77947 17.7884 5.38253 -180.259 -31.2392 -184.221
lowerback 11.1223 2.64159 -2.88556
upperback 1.35541 3.04088 -0.257981
thorax -4.95187 1.50797 0.892501
lowerneck -18.16 1.8298 -10.4401
upperneck 39.0357 2.45121 4.11198
head 17.0787 -0.881074 3.9171
rclavicle 1.18277e-014 -3.18055e-015
rhumerus -38.178 -15.6962 -67.7396
rradius 30.3959
rwrist 9.2154
rhand -16.5748 10.719
rfingers 7.12502
rthumb 9.64559 -19.0402
lclavicle 1.18277e-014 -3.18055e-015
lhumerus -25.8663 3.64157 84.9955
lradius 32.1132
lwrist -4.21133
lhand -20.3042 22.7086
lfingers 7.12502
lthumb 6.04609 52.6023
rfemur -6.87144 4.37975 -0.850565
rtibia 32.0724
rfoot -8.54038 -11.836
rtoes 2.64251
lfemur -0.354212 -3.76576 -18.9913
ltibia 19.5236
lfoot -12.8023 -6.8195
ltoes -13.3474
2086
root 7.73395 17.7983 5.44728 -180.319 -31.3585 -184.155
lowerback 11.2329 2.62889 -3.05102
upperback 1.30523 3.0008 -0.240039
thorax -5.07408 1.49345 1.00402
lowerneck -17.9948 1.83584 -10.3843
upperneck 38.9339 2.39584 4.169
head 16.9851 -0.879069 3.91546
rclavicle -1.12239e-013 -6.75868e-015
rhumerus -38.279 -15.8109 -67.9812
rradius 30.3058
rwrist 9.62989
rhand -16.8309 11.224
rfingers 7.12502
rthumb 9.39851 -18.5464
lclavicle -1.12239e-013 -6.75868e-015
lhumerus -26.0094 3.28818 84.7873
lradius 32.2836
lwrist -4.11832
lhand -20.0064 22.764
lfingers 7.12502
lthumb 6.33367 52.6493
rfemur -7.28908 3.91427 -0.319815
rtibia 33.4307
rfoot -9.43296 -11.2541
rtoes 0.739973
lfemur -0.490097 -3.79402 -19.1829
ltibia 19.5685
lfoot -12.6914 -6.93754
ltoes -12.801
2087
root 7.68844 17.8104 5.51021 -180.575 -31.4304 -183.815
lowerback 11.4125 2.58355 -2.96168
upperback 1.24149 2.95162 -0.148608
thorax -5.23921 1.47134 1.04806
lowerneck -17.81 1.88483 -10.2091
upperneck 38.8462 2.42181 4.05585
head 16.8932 -0.854242 3.82932
rclavicle 7.21588e-014 -9.34288e-015
rhumerus -38.4099 -15.8428 -68.2556
rradius 30.1502
rwrist 9.90777
rhand -17.395 11.8401
rfingers 7.12502
rthumb 8.85422 -17.9542
lclavicle 7.21588e-014 -9.34288e-015
lhumerus -26.1497 3.04168 84.5612
lradius 32.385
lwrist -4.10508
lhand -19.3948 22.7611
lfingers 7.12502
lthumb 6.92403 52.6279
rfemur -7.669 3.46563 0.510025
rtibia 34.7702
rfoot -10.1433 -10.1769
rtoes -1.44106
lfemur -0.591734 -3.72922 -19.097
ltibia 19.7304
lfoot -12.7407 -7.08752
ltoes -12.3105
2088
root 7.63914 17.8228 5.57194 -180.917 -31.3817 -183.372
lowerback 11.5423 2.57175 -2.71946
upperback 1.26092 2.96674 -0.0525445
thorax -5.28425 1.47429 1.00546
lowerneck -17.8497 1.90734 -10.0901
upperneck 38.8207 2.45528 3.98187
head 16.8899 -0.829847 3.78136
rclavicle -6.13499e-014 -2.5842e-015
rhumerus -38.4689 -15.8638 -68.583
rradius 30.1936
rwrist 10.0048
rhand -17.4727 11.8457
rfingers 7.12502
rthumb 8.77917 -17.9517
lclavicle -6.13499e-014 -2.5842e-015
lhumerus -26.0997 2.94438 84.3355
lradius 32.409
lwrist -3.87996
lhand -19.1504 22.658
lfingers 7.12502
lthumb 7.15995 52.5169
rfemur -8.04489 2.9957 1.43693
rtibia 36.1053
rfoot -10.8071 -8.70737
rtoes -3.23091
lfemur -0.67329 -3.67383 -18.9439
ltibia 19.9622
lfoot -12.8372 -7.16303
ltoes -11.8274
2089
root 7.59206 17.8312 5.63342 -181.165 -31.3814 -183.015
lowerback 11.5618 2.54465 -2.54136
upperback 1.3228 2.95435 0.00888065
thorax -5.22363 1.46295 0.972777
lowerneck -17.9694 1.89897 -10.0853
upperneck 38.7925 2.45927 4.01641
head 16.9034 -0.816118 3.80012
rclavicle 3.79182e-014 -7.95139e-015
rhumerus -38.4013 -15.8304 -68.9877
rradius 30.3126
rwrist 10.1166
rhand -16.9479 11.35
rfingers 7.12502
rthumb 9.28565 -18.4256
lclavicle 3.79182e-014 -7.95139e-015
lhumerus -25.9807 3.04494 84.0227
lradius 32.3815
lwrist -3.84114
lhand -19.1366 22.4853
lfingers 7.12502
lthumb 7.17329 52.3437
rfemur -8.44014 2.36977 2.31991
rtibia 37.4415
rfoot -11.4372 -7.11403
rtoes -4.86703
lfemur -0.838924 -3.78189 -18.8915
ltibia 20.2408
lfoot -12.9306 -7.02169
ltoes -12.0501
2090
root 7.55047 17.836 5.69586 -181.333 -31.4607 -182.764
lowerback 11.6041 2.50398 -2.44824
upperback 1.35737 2.90999 0.0232915
thorax -5.20506 1.43798 0.942131
lowerneck -18.0059 1.88105 -10.066
upperneck 38.6929 2.41295 4.11089
head 16.8606 -0.805614 3.83023
rclavicle 1.21507e-014 -2.16675e-014
rhumerus -38.3356 -15.8309 -69.378
rradius 30.3629
rwrist 10.3598
rhand -16.5671 11.0465
rfingers 7.12502
rthumb 9.65306 -18.7124
lclavicle 1.21507e-014 -2.16675e-014
lhumerus -25.9265 2.97455 83.7084
lradius 32.4288
lwrist -3.76277
lhand -19.2681 22.757
lfingers 7.12502
lthumb 7.04637 52.6197
rfemur -8.8356 1.72625 3.14527
rtibia 38.7912
rfoot -12.1115 -5.57681
rtoes -6.65005
lfemur -1.07231 -3.9807 -18.924
ltibia 20.5568
lfoot -13.0624 -6.85934
ltoes -12.7347
2091
root 7.50917 17.8411 5.75689 -181.506 -31.4601 -182.521
lowerback 11.6766 2.49855 -2.38039
upperback 1.35649 2.91096 0.0616631
thorax -5.24491 1.43742 0.941105
lowerneck -17.9945 1.87105 -10.1926
upperneck 38.618 2.35547 4.36483
head 16.8125 -0.802193 3.95521
rclavicle 1.02747e-013 -1.82882e-014
rhumerus -38.3134 -15.7221 -69.7224
rradius 30.3183
rwrist 10.3496
rhand -16.7675 11.4212
rfingers 7.12502
rthumb 9.45971 -18.3465
lclavicle 1.02747e-013 -1.82882e-014
lhumerus -26.0124 2.83987 83.4519
lradius 32.6115
lwrist -3.63466
lhand -19.3101 23.2474
lfingers 7.12502
lthumb 7.00584 53.1114
rfemur -9.23279 1.14532 3.98459
rtibia 40.1841
rfoot -12.8729 -4.00136
rtoes -10.4518
lfemur -1.29211 -4.11189 -18.9596
ltibia 20.8763
lfoot -13.2006 -6.68651
ltoes -13.0008
